<?xml version="1.0" encoding="UTF-8" standalone="no"?>
<svg xmlns="http://www.w3.org/2000/svg" viewBox="-98 304.8 512 489.5">
 <path d="m405.7 517.9l-103.9 101.3 24.5 143c1.8 10.3-2.5 20.7-10.9 26.9-4.8 3.5-10.5 5.2-16.1 5.2-4.4 0-8.8-1-12.8-3.2l-128.5-67.5-128.5 67.5c-9.3 4.9-20.5 4.1-28.9-2.1s-12.7-16.6-10.9-26.9l24.5-143-103.9-101.2c-7.5-7.3-10.2-18.2-7-28.1s11.8-17.2 22.2-18.7l143.6-20.9 64.3-130.1c4.6-9.4 14.2-15.3 24.6-15.3 10.5 0 20 5.9 24.6 15.3l64.3 130.1 143.6 20.9c10.3 1.5 18.9 8.7 22.1 18.7 3.3 9.8 0.6 20.8-6.9 28.1z" fill="#f3e114"/>
</svg>
