<svg xmlns="http://www.w3.org/2000/svg" preserveAspectRatio="xMinYMin meet" viewBox="0 0 100 60"><g fill="none" fill-rule="evenodd" stroke="#363636" stroke-width="2"><path d="M44.957 14.452l39.735 10.602a2 2 0 01.35 3.735l-25.2 12.113a10 10 0 01-7.03.617L14.22 30.707a2 2 0 01-.343-3.72L37.966 15.14a10 10 0 016.99-.689z"/><path stroke-linecap="round" d="M86.2 27.5v7m-73.4-5v7m43.4 6v7M19.012 31.977l30.967-15.822M28.307 34.308l30.754-15.684M47.657 39.233l30.19-15.656m-40.36 13.446L68.17 20.73m-42.41.514l48.856 12.592"/></g></svg>