<svg xmlns="http://www.w3.org/2000/svg" preserveAspectRatio="xMinYMin meet" viewBox="0 0 100 60"><path fill="#363636" d="M49.347 44.936l1.585.571a1 1 0 00.786-.046l23.14-11.564a.2.2 0 00.104-.127c.06-.224.072-1.89.017-4.698L52.612 40.25a3 3 0 01-2.358.139l-.907-.327zm-.673 1.883l-3.842 1.876a4 4 0 01-2.825.26l-20.274-5.628a1 1 0 01-.733-.963V31.376a.93.93 0 01.016-.176.987.987 0 01.54-1.07l3.946-1.96a4 4 0 01.998-.34v-7.496c0-.143.03-.279.084-.402a1.508 1.508 0 01.823-1.21L49.953 7.423a4 4 0 012.801-.295l3.582.935a1.5 1.5 0 011.115 1.596 1 1 0 01.05.312v1.68l20.731 5.455a1.5 1.5 0 011.113 1.593l.002.056v11.11a1 1 0 01-.561.9l-1.772.864c.003 1.485-.035 2.338-.12 2.658a2.2 2.2 0 01-1.142 1.398L52.612 47.25a3 3 0 01-2.358.139zm28.313-17.402l.36-.175v-8.837l-2.273.969c-.069.03-.138.057-.209.082v3.01l.473.127a2.2 2.2 0 011.597 2.507c.022.853.04 1.624.052 2.317zm-27.64 8.519l1.585.571a1 1 0 00.786-.046l23.14-11.564a.2.2 0 00-.037-.372l-17.475-4.686a2 2 0 00-1.418.146l-17.156 8.644 9.46 2.478a1.5 1.5 0 011.113 1.593l.002.056zm-13.398-8.047l-.031-.062 19.11-9.628a4 4 0 01.472-.201v-8.573L34.417 22.043a4.999 4.999 0 01-1.217.427v6.698l2.749.72zM57.5 19.828a4 4 0 01.364.08l15.001 4.022v-2.287a4 4 0 01-.398-.085L57.5 17.538zm0-4.361l15.486 4.16a2 2 0 001.304-.093l2.024-.863L57.5 13.719zm-12.635 21.99v8.996l2.482-1.211v-8.837l-2.273.969c-.069.03-.139.057-.21.083zm-2 .186a4 4 0 01-.398-.085L23 32.328v9.275l19.542 5.425a2 2 0 00.323.062zM31.2 22.483a5.002 5.002 0 01-.386-.093l-2.314-.65v6.197l2.7.707zm-3.413 7.335a2 2 0 00-1.396.143l-1.578.784 18.173 4.881a2 2 0 001.304-.092l2.022-.862zM52.25 9.065a2 2 0 00-1.401.147L29.457 19.93l1.899.534a3 3 0 002.162-.208L54.549 9.664l-2.3-.6z"/></svg>